<?xml version="1.0" standalone="no"?>
<!DOCTYPE svg PUBLIC "-//W3C//DTD SVG 20010904//EN"
 "http://www.w3.org/TR/2001/REC-SVG-20010904/DTD/svg10.dtd">
<svg version="1.0" xmlns="http://www.w3.org/2000/svg"
 width="512.000000pt" height="512.000000pt" viewBox="0 0 512.000000 512.000000"
 preserveAspectRatio="xMidYMid meet">
<metadata>
Created by potrace 1.14, written by Peter Selinger 2001-2017
</metadata>
<g transform="translate(0.000000,512.000000) scale(0.100000,-0.100000)"
fill="#000000" stroke="none">
<path d="M2368 5116 c-1 -2 -37 -7 -77 -10 -41 -4 -77 -9 -80 -11 -4 -2 -31
-6 -61 -10 -30 -3 -86 -13 -124 -22 -37 -8 -73 -16 -80 -17 -60 -12 -209 -60
-321 -103 -419 -162 -836 -476 -1097 -828 -4 -5 -18 -23 -31 -40 -118 -149
-265 -425 -345 -645 -54 -151 -107 -362 -126 -505 -17 -128 -21 -190 -21 -375
1 -183 4 -241 20 -345 3 -16 7 -43 9 -60 3 -24 23 -124 41 -205 14 -61 69
-232 102 -315 306 -765 941 -1330 1728 -1540 66 -18 200 -45 250 -51 22 -3 46
-7 54 -10 75 -25 575 -25 696 0 11 2 45 7 75 11 30 3 73 11 95 17 22 6 51 12
65 15 54 9 181 47 300 90 456 165 879 480 1170 873 38 52 73 100 78 105 21 27
128 215 167 293 69 138 148 349 181 477 4 17 8 32 9 35 4 15 16 90 15 92 -1 2
3 15 9 30 6 15 13 49 17 75 3 27 8 57 10 68 26 127 25 558 -1 711 -3 16 -7 43
-9 59 -3 17 -10 55 -16 85 -6 30 -14 66 -16 80 -3 14 -12 48 -20 76 -8 28 -16
60 -18 70 -20 98 -157 417 -238 554 -34 57 -102 165 -108 170 -3 3 -23 30 -44
60 -258 365 -686 697 -1118 869 -68 27 -254 89 -288 96 -8 2 -46 11 -85 20
-74 17 -150 31 -225 41 -25 3 -56 8 -70 11 -28 5 -466 13 -472 9z"/>
</g>
</svg>
