<?xml version="1.0" standalone="no"?>
<!DOCTYPE svg PUBLIC "-//W3C//DTD SVG 20010904//EN"
 "http://www.w3.org/TR/2001/REC-SVG-20010904/DTD/svg10.dtd">
<svg version="1.0" xmlns="http://www.w3.org/2000/svg"
 width="700.000000pt" height="700.000000pt" viewBox="0 0 700.000000 700.000000"
 preserveAspectRatio="xMidYMid meet">
<metadata>
Created by potrace 1.14, written by Peter Selinger 2001-2017
</metadata>
<g transform="translate(0.000000,700.000000) scale(0.100000,-0.100000)"
fill="#000000" stroke="none">
<path d="M3417 6465 c-1 -1 -36 -5 -77 -9 -317 -26 -648 -160 -905 -366 -134
-107 -237 -222 -373 -417 -33 -48 -125 -237 -155 -318 -51 -139 -67 -207 -91
-375 -13 -91 -16 -405 -4 -426 3 -5 9 -34 12 -64 7 -63 57 -257 81 -313 8 -20
14 -37 13 -38 -2 0 -10 -2 -18 -4 -143 -31 -259 -70 -384 -129 -350 -164 -634
-445 -808 -801 -44 -89 -110 -280 -127 -365 -6 -30 -13 -68 -17 -85 -19 -99
-26 -369 -11 -491 44 -370 219 -729 486 -994 264 -263 585 -424 971 -486 19
-3 107 -7 195 -9 238 -5 415 24 625 102 228 85 422 208 603 382 l47 45 58 -55
c132 -128 269 -224 437 -306 141 -69 332 -131 455 -148 25 -3 61 -9 80 -13 50
-9 332 -8 415 1 107 12 269 51 380 92 512 190 897 607 1049 1136 14 48 27 104
31 126 3 21 8 50 10 63 19 93 25 315 13 445 -25 252 -100 472 -253 734 -41 69
-162 217 -244 298 -214 212 -470 358 -768 439 -35 9 -63 18 -63 20 0 1 11 33
24 71 65 181 91 341 91 558 -1 144 -6 220 -25 315 -68 355 -234 659 -500 916
-207 200 -474 347 -761 418 -106 26 -139 32 -244 42 -61 6 -243 12 -248 9z"/>
</g>
</svg>
